<svg xmlns="http://www.w3.org/2000/svg" viewBox="0 0 220 60" width="220" height="60">
  <!-- Shark silhouette -->
  <g transform="translate(0,2) scale(0.55)">
    <path d="M10 55 Q15 30 40 25 Q50 15 65 10 Q75 5 85 8 Q95 3 100 8 L105 5 L103 12 Q108 15 110 22 Q115 20 118 25 Q115 28 110 30 Q105 40 90 48 Q75 55 55 55 Q40 58 25 55 Z" fill="#2a7a9b" stroke="#1a5a7b" stroke-width="1.5"/>
    <circle cx="45" cy="32" r="3" fill="#0a0a0a"/>
    <!-- Dorsal fin -->
    <path d="M65 25 L72 2 L80 22" fill="#2a7a9b" stroke="#1a5a7b" stroke-width="1"/>
    <!-- Tail fin -->
    <path d="M10 50 L2 35 L15 45" fill="#2a7a9b" stroke="#1a5a7b" stroke-width="1"/>
  </g>
  <!-- Text -->
  <text x="68" y="22" font-family="Georgia,serif" font-size="11" font-weight="700" fill="#4a9ab5" letter-spacing="0.5">THE</text>
  <text x="68" y="38" font-family="Georgia,serif" font-size="14" font-weight="700" fill="#2a8aab" letter-spacing="1">SHARK TANK</text>
  <text x="68" y="54" font-family="Georgia,serif" font-size="14" font-weight="700" fill="#2a8aab" letter-spacing="1">BLOG</text>
</svg>
